<svg width="206" height="200" viewBox="0 0 206 200" fill="none" xmlns="http://www.w3.org/2000/svg">
<path d="M85.5896 103.811H85.0833L65.5905 48.3701L51.667 8.37178C52.3614 7.54995 53.1235 6.78781 53.9454 6.0934C56.2643 4.10339 58.9638 2.60589 61.8796 1.69196C64.7955 0.778036 67.8668 0.466795 70.9067 0.777168L90.6527 56.9773L104.576 96.4693C102.185 99.0657 99.2298 101.078 95.9378 102.351C92.6458 103.624 89.1053 104.123 85.5896 103.811Z" fill="url(#paint0_linear_0_1)"/>
<path d="M48.3764 104.064C46.9099 103.907 45.4892 103.46 44.1968 102.749C42.9043 102.039 41.7658 101.079 40.8474 99.9249C39.9289 98.7709 39.2487 97.4461 38.8464 96.0271C38.444 94.6082 38.3274 93.1235 38.5034 91.6592L46.3512 20.7761C46.889 15.8436 49.0223 11.2215 52.4269 7.61209L54.4521 5.58686C56.7797 3.71839 59.4553 2.331 62.3235 1.50529C65.1918 0.67958 68.1955 0.432004 71.1603 0.776936L60.781 94.1907C60.4259 97.139 58.9811 99.848 56.7305 101.785C55.568 102.716 54.2267 103.399 52.7897 103.791C51.3528 104.183 49.8507 104.276 48.3764 104.064Z" fill="#5272FF"/>
<path d="M134.195 103.557L112.677 63.8121L97.9941 36.7247L99.2599 35.4589C101.507 33.4359 104.159 31.9153 107.041 30.9986C109.922 30.0819 112.965 29.7901 115.968 30.1427L116.474 30.649L137.739 70.3941L152.422 97.2284L151.156 98.2411C148.871 100.284 146.176 101.816 143.25 102.732C140.325 103.649 137.238 103.93 134.195 103.557Z" fill="url(#paint1_linear_0_1)"/>
<path d="M133.942 103.557L138.499 63.3059C138.668 61.8154 139.136 60.3745 139.876 59.0694C140.616 57.7644 141.611 56.6222 142.803 55.7113C143.911 54.7729 145.208 54.0838 146.605 53.6907C148.003 53.2976 149.469 53.2097 150.904 53.4329C152.392 53.5584 153.841 53.9821 155.162 54.6789C156.484 55.3756 157.652 56.331 158.597 57.4884C159.541 58.6457 160.244 59.9813 160.662 61.4156C161.08 62.8499 161.205 64.3537 161.03 65.8374L159.005 83.8113C158.347 89.2677 155.74 94.3025 151.663 97.988C151.41 98.2411 150.904 98.4943 150.651 99.0006C148.304 100.825 145.619 102.166 142.752 102.948C139.884 103.73 136.89 103.937 133.942 103.557Z" fill="#5272FF"/>
<path d="M85.084 103.557L91.1597 49.1294C91.9 43.9719 94.4049 39.2305 98.248 35.7122C98.5475 35.2451 98.9923 34.8893 99.5138 34.6996C104.086 31.0547 109.895 29.3299 115.716 29.8897H115.969L110.146 84.5709C109.468 89.3659 107.247 93.8094 103.817 97.2286C101.416 99.6873 98.4667 101.542 95.2106 102.643C91.9546 103.743 88.4844 104.056 85.084 103.557Z" fill="#5272FF"/>
<path d="M69.287 118.16C69.287 117.51 68.797 117.02 68.147 117.02H47.347C46.697 117.02 46.207 117.51 46.207 118.16V121.41C46.207 122.06 46.697 122.54 47.347 122.54H54.177V138.63C54.177 139.28 54.657 139.77 55.307 139.77H60.187C60.837 139.77 61.327 139.28 61.327 138.63V122.54H68.147C68.797 122.54 69.287 122.06 69.287 121.41V118.16Z" fill="#EEF2F5"/>
<path d="M89.857 138.63C90.117 139.28 90.667 139.77 91.317 139.77H96.847C97.497 139.77 97.947 139.28 97.657 138.63L88.557 118.12C88.267 117.47 87.747 117.02 87.097 117.02H80.437C79.787 117.02 79.267 117.51 78.967 118.16L69.867 138.63C69.577 139.28 70.037 139.77 70.687 139.77H75.887C76.537 139.77 77.087 139.28 77.347 138.63L78.487 135.71H88.717L89.857 138.63ZM83.517 123.84H83.847L86.447 130.34H80.757L83.517 123.84Z" fill="#EEF2F5"/>
<path d="M117.837 138.63C118.097 139.28 118.657 139.77 119.307 139.77H124.827C125.477 139.77 125.937 139.28 125.637 138.63L116.537 118.12C116.247 117.47 115.727 117.02 115.077 117.02H108.417C107.767 117.02 107.247 117.51 106.957 118.16L97.8574 138.63C97.5574 139.28 98.0174 139.77 98.6674 139.77H103.867C104.517 139.77 105.067 139.28 105.327 138.63L106.467 135.71H116.707L117.837 138.63ZM111.507 123.84H111.827L114.427 130.34H108.737L111.507 123.84Z" fill="#EEF2F5"/>
<path d="M134.837 123.68C134.837 122.71 135.817 121.73 138.737 121.73C141.177 121.73 142.187 122.71 142.477 123.19C142.927 124.01 143.447 124.49 144.427 124.49H148.487C149.297 124.49 149.787 124.01 149.787 123.19C149.787 119.94 146.217 116.37 138.737 116.37C130.777 116.37 127.367 119.78 127.367 123.68C127.367 132.78 143.127 129.69 143.127 132.94C143.127 133.92 141.987 135.06 138.737 135.06C135.487 135.06 134.517 134.08 134.027 133.27C133.567 132.49 133.047 131.97 132.077 131.97H128.017C127.197 131.97 126.717 132.46 126.717 133.27C126.717 136.84 130.287 140.42 138.737 140.42C147.027 140.42 150.597 136.84 150.597 132.94C150.597 123.84 134.837 126.93 134.837 123.68Z" fill="#EEF2F5"/>
<path d="M8.86707 153.06C8.86707 152.09 9.84707 151.11 12.7671 151.11C15.2071 151.11 16.2171 152.09 16.5071 152.57C16.9571 153.39 17.4771 153.87 18.4571 153.87H22.5171C23.3271 153.87 23.8171 153.39 23.8171 152.57C23.8171 149.32 20.2471 145.75 12.7671 145.75C4.80707 145.75 1.39707 149.16 1.39707 153.06C1.39707 162.16 17.1571 159.07 17.1571 162.32C17.1571 163.3 16.0171 164.44 12.7671 164.44C9.51707 164.44 8.54708 163.46 8.05708 162.65C7.59708 161.87 7.07707 161.35 6.10707 161.35H2.04707C1.22707 161.35 0.74707 161.84 0.74707 162.65C0.74707 166.22 4.31707 169.8 12.7671 169.8C21.0571 169.8 24.6271 166.22 24.6271 162.32C24.6271 153.22 8.86707 156.31 8.86707 153.06Z" fill="#EEF2F5"/>
<path d="M40.3974 164.44C36.8174 164.44 34.5474 162.16 34.5474 157.77C34.5474 153.39 36.8174 151.11 40.3974 151.11C43.9674 151.11 46.2474 153.39 46.2474 157.77C46.2474 162.16 43.9674 164.44 40.3974 164.44ZM40.3974 145.75C31.7774 145.75 27.0674 150.46 27.0674 157.77C27.0674 165.09 31.7774 169.8 40.3974 169.8C49.0074 169.8 53.7174 165.09 53.7174 157.77C53.7174 150.46 49.0074 145.75 40.3974 145.75Z" fill="#EEF2F5"/>
<path d="M78.0972 164.76C78.0972 164.11 77.6072 163.62 76.9572 163.62H64.7672V147.54C64.7672 146.89 64.2772 146.4 63.6272 146.4H58.7572C58.1072 146.4 57.6172 146.89 57.6172 147.54V168.01C57.6172 168.66 58.1072 169.15 58.7572 169.15H76.9572C77.6072 169.15 78.0972 168.66 78.0972 168.01V164.76Z" fill="#EEF2F5"/>
<path d="M92.8774 169.8C100.847 169.8 104.907 165.9 104.907 159.69V147.54C104.907 146.89 104.417 146.4 103.767 146.4H98.8974C98.2474 146.4 97.7574 146.89 97.7574 147.54V159.72C97.7574 162.65 95.9674 164.44 92.8774 164.44C89.7974 164.44 88.0074 162.65 88.0074 159.72V147.54C88.0074 146.89 87.5174 146.4 86.8674 146.4H81.9974C81.3474 146.4 80.8574 146.89 80.8574 147.54V159.72C80.8574 165.9 84.7574 169.8 92.8774 169.8Z" fill="#EEF2F5"/>
<path d="M130.747 147.54C130.747 146.89 130.257 146.4 129.607 146.4H108.807C108.157 146.4 107.667 146.89 107.667 147.54V150.79C107.667 151.44 108.157 151.92 108.807 151.92H115.627V168.01C115.627 168.66 116.117 169.15 116.767 169.15H121.647C122.297 169.15 122.777 168.66 122.777 168.01V151.92H129.607C130.257 151.92 130.747 151.44 130.747 150.79V147.54Z" fill="#EEF2F5"/>
<path d="M147.967 147.54C147.967 146.89 147.477 146.4 146.827 146.4H133.507C132.857 146.4 132.367 146.89 132.367 147.54V150.79C132.367 151.44 132.857 151.92 133.507 151.92H136.597V163.62H133.507C132.857 163.62 132.367 164.11 132.367 164.76V168.01C132.367 168.66 132.857 169.15 133.507 169.15H146.827C147.477 169.15 147.967 168.66 147.967 168.01V164.76C147.967 164.11 147.477 163.62 146.827 163.62H143.747V151.92H146.827C147.477 151.92 147.967 151.44 147.967 150.79V147.54Z" fill="#EEF2F5"/>
<path d="M163.897 164.44C160.317 164.44 158.047 162.16 158.047 157.77C158.047 153.39 160.317 151.11 163.897 151.11C167.467 151.11 169.747 153.39 169.747 157.77C169.747 162.16 167.467 164.44 163.897 164.44ZM163.897 145.75C155.277 145.75 150.567 150.46 150.567 157.77C150.567 165.09 155.277 169.8 163.897 169.8C172.507 169.8 177.217 165.09 177.217 157.77C177.217 150.46 172.507 145.75 163.897 145.75Z" fill="#EEF2F5"/>
<path d="M197.697 159.4L189.567 147.54C189.247 147.05 188.597 146.4 187.777 146.4H182.257C181.607 146.4 181.117 146.89 181.117 147.54V168.01C181.117 168.66 181.607 169.15 182.257 169.15H187.127C187.777 169.15 188.267 168.66 188.267 168.01V156.15H188.597L196.717 168.01C197.047 168.5 197.697 169.15 198.507 169.15H204.027C204.677 169.15 205.167 168.66 205.167 168.01V147.54C205.167 146.89 204.677 146.4 204.027 146.4H199.157C198.507 146.4 198.017 146.89 198.017 147.54V159.4H197.697Z" fill="#EEF2F5"/>
<path d="M10.0971 197.981C8.79711 197.981 8.20711 197.221 8.20711 195.771V189.181H10.4771V188.021H8.20711V185.481H6.96711V188.021H5.28711V189.181H6.96711V195.771C6.96711 197.891 8.08711 199.151 10.0971 199.151H10.7271V197.981H10.0971Z" fill="#EEF2F5"/>
<path d="M18.4566 195.671C18.2866 197.281 17.4966 198.041 15.8966 198.041C14.4466 198.041 13.5666 197.181 13.5666 195.331V194.131H19.5466V191.701C19.5466 189.181 18.0766 187.771 15.8766 187.771C13.7366 187.771 12.3066 189.181 12.3066 191.701V195.331C12.3066 197.851 13.7166 199.261 15.8566 199.261C18.1666 199.261 19.5266 197.981 19.6966 195.671H18.4566ZM15.8966 188.991C17.4066 188.991 18.3066 189.851 18.3066 191.701V192.981H13.5666V191.701C13.5666 189.851 14.4466 188.991 15.8966 188.991Z" fill="#EEF2F5"/>
<path d="M25.2868 199.261C27.4668 199.261 28.8768 197.851 28.9368 195.331H27.6768C27.6168 197.181 26.7568 198.041 25.2868 198.041C23.8768 198.041 23.0168 197.181 23.0168 195.331V191.701C23.0168 189.851 23.8768 188.991 25.2868 188.991C26.7568 188.991 27.5968 189.851 27.6568 191.701H28.9168C28.8568 189.181 27.4668 187.771 25.2868 187.771C23.1668 187.771 21.7568 189.181 21.7568 191.701V195.331C21.7568 197.851 23.1668 199.261 25.2868 199.261Z" fill="#EEF2F5"/>
<path d="M35.0871 187.771C33.7471 187.771 32.7971 188.421 32.2371 189.411V183.931H30.9971V199.051H32.2371V192.391C32.2371 190.231 33.2471 188.951 34.7771 188.951C36.1571 188.951 36.8171 189.951 36.8171 192.491V199.051H38.0471V192.391C38.0471 189.161 36.9771 187.771 35.0871 187.771Z" fill="#EEF2F5"/>
<path d="M48.737 187.771C46.707 187.771 45.337 189.011 45.257 190.901H46.497C46.577 189.681 47.437 188.971 48.697 188.971C50.127 188.971 50.887 189.831 50.887 191.441V192.621H48.697C46.287 192.621 44.917 193.801 44.917 195.921C44.917 198.061 46.387 199.301 48.407 199.301C49.597 199.301 50.437 198.751 50.947 198.021L51.047 199.051H52.117V191.421C52.117 189.181 50.837 187.771 48.737 187.771ZM48.597 198.081C47.167 198.081 46.177 197.391 46.177 195.941C46.177 194.531 47.037 193.781 48.657 193.781H50.887V195.941C50.887 197.201 49.997 198.081 48.597 198.081Z" fill="#EEF2F5"/>
<path d="M57.8172 199.301C59.8672 199.301 61.2372 198.081 61.2372 196.251C61.2372 192.371 55.5672 193.361 55.5672 190.771C55.5672 189.641 56.3172 188.971 57.6272 188.971C59.0072 188.971 59.8072 189.791 59.8072 191.151H61.0472C61.0472 189.111 59.6772 187.771 57.6272 187.771C55.6272 187.771 54.3072 188.951 54.3072 190.731C54.3072 194.511 59.9772 193.521 59.9772 196.211C59.9772 197.391 59.1772 198.081 57.8172 198.081C56.2972 198.081 55.3972 197.221 55.3972 195.771H54.1572C54.1572 197.891 55.6272 199.301 57.8172 199.301Z" fill="#EEF2F5"/>
<path d="M71.3766 187.771C69.3366 187.771 67.9766 189.011 67.8966 190.901H69.1266C69.2166 189.681 70.0766 188.971 71.3366 188.971C72.7666 188.971 73.5166 189.831 73.5166 191.441V192.621H71.3366C68.9166 192.621 67.5566 193.801 67.5566 195.921C67.5566 198.061 69.0266 199.301 71.0466 199.301C72.2366 199.301 73.0766 198.751 73.5866 198.021L73.6866 199.051H74.7566V191.421C74.7566 189.181 73.4766 187.771 71.3766 187.771ZM71.2266 198.081C69.8066 198.081 68.8166 197.391 68.8166 195.941C68.8166 194.531 69.6766 193.781 71.2966 193.781H73.5166V195.941C73.5166 197.201 72.6366 198.081 71.2266 198.081Z" fill="#EEF2F5"/>
<path d="M85.2574 199.301C87.3174 199.301 88.6874 198.081 88.6874 196.251C88.6874 192.371 83.0174 193.361 83.0174 190.771C83.0174 189.641 83.7674 188.971 85.0674 188.971C86.4574 188.971 87.2574 189.791 87.2574 191.151H88.4974C88.4974 189.111 87.1274 187.771 85.0674 187.771C83.0774 187.771 81.7574 188.951 81.7574 190.731C81.7574 194.511 87.4274 193.521 87.4274 196.211C87.4274 197.391 86.6274 198.081 85.2574 198.081C83.7474 198.081 82.8474 197.221 82.8474 195.771H81.6074C81.6074 197.891 83.0774 199.301 85.2574 199.301Z" fill="#EEF2F5"/>
<path d="M96.6668 195.671C96.4968 197.281 95.6968 198.041 94.0968 198.041C92.6468 198.041 91.7668 197.181 91.7668 195.331V194.131H97.7568V191.701C97.7568 189.181 96.2868 187.771 94.0768 187.771C91.9368 187.771 90.5068 189.181 90.5068 191.701V195.331C90.5068 197.851 91.9168 199.261 94.0568 199.261C96.3668 199.261 97.7368 197.981 97.8968 195.671H96.6668ZM94.0968 188.991C95.6168 188.991 96.5168 189.851 96.5168 191.701V192.981H91.7668V191.701C91.7668 189.851 92.6468 188.991 94.0968 188.991Z" fill="#EEF2F5"/>
<path d="M104.347 187.792C102.987 187.792 102.037 188.442 101.467 189.432V189.412L101.257 188.022H100.237V199.052H101.467V192.372C101.467 190.272 102.497 189.012 104.077 189.012C104.617 189.012 105.067 189.092 105.457 189.242V187.902C105.127 187.812 104.767 187.792 104.347 187.792Z" fill="#EEF2F5"/>
<path d="M112.267 188.021L110.527 194.471C110.287 195.371 109.957 196.821 109.807 197.431H109.727C109.577 196.821 109.237 195.371 109.007 194.471L107.267 188.021H105.967L109.097 199.051H110.437L113.567 188.021H112.267Z" fill="#EEF2F5"/>
<path d="M115.728 185.981C116.338 185.981 116.738 185.591 116.738 184.981C116.738 184.371 116.338 183.971 115.728 183.971C115.118 183.971 114.728 184.371 114.728 184.981C114.728 185.591 115.118 185.981 115.728 185.981ZM115.118 199.051H116.358V188.021H115.118V199.051Z" fill="#EEF2F5"/>
<path d="M122.387 199.261C124.567 199.261 125.977 197.851 126.037 195.331H124.777C124.717 197.181 123.857 198.041 122.387 198.041C120.977 198.041 120.117 197.181 120.117 195.331V191.701C120.117 189.851 120.977 188.991 122.387 188.991C123.857 188.991 124.697 189.851 124.757 191.701H126.017C125.957 189.181 124.567 187.771 122.387 187.771C120.267 187.771 118.857 189.181 118.857 191.701V195.331C118.857 197.851 120.267 199.261 122.387 199.261Z" fill="#EEF2F5"/>
<path d="M134.087 195.671C133.917 197.281 133.117 198.041 131.527 198.041C130.077 198.041 129.187 197.181 129.187 195.331V194.131H135.177V191.701C135.177 189.181 133.707 187.771 131.497 187.771C129.357 187.771 127.927 189.181 127.927 191.701V195.331C127.927 197.851 129.337 199.261 131.477 199.261C133.787 199.261 135.157 197.981 135.327 195.671H134.087ZM131.527 188.991C133.037 188.991 133.937 189.851 133.937 191.701V192.981H129.187V191.701C129.187 189.851 130.077 188.991 131.527 188.991Z" fill="#EEF2F5"/>
<path d="M145.388 199.301C147.438 199.301 148.808 198.081 148.808 196.251C148.808 192.371 143.138 193.361 143.138 190.771C143.138 189.641 143.888 188.971 145.198 188.971C146.578 188.971 147.378 189.791 147.378 191.151H148.618C148.618 189.111 147.248 187.771 145.198 187.771C143.198 187.771 141.878 188.951 141.878 190.731C141.878 194.511 147.548 193.521 147.548 196.211C147.548 197.391 146.748 198.081 145.388 198.081C143.868 198.081 142.968 197.221 142.968 195.771H141.728C141.728 197.891 143.198 199.301 145.388 199.301Z" fill="#EEF2F5"/>
<path d="M154.307 199.301C156.517 199.301 157.987 197.891 157.987 195.311V191.761C157.987 189.181 156.517 187.771 154.307 187.771C152.107 187.771 150.637 189.181 150.637 191.761V195.311C150.637 197.891 152.107 199.301 154.307 199.301ZM154.307 198.081C152.817 198.081 151.897 197.221 151.897 195.311V191.761C151.897 189.851 152.817 188.991 154.307 188.991C155.797 188.991 156.727 189.851 156.727 191.761V195.311C156.727 197.221 155.797 198.081 154.307 198.081Z" fill="#EEF2F5"/>
<path d="M160.547 199.051H161.787V183.861H160.547V199.051Z" fill="#EEF2F5"/>
<path d="M170.307 188.021V194.701C170.307 196.841 169.297 198.121 167.767 198.121C166.317 198.121 165.727 197.111 165.727 194.891V188.021H164.497V195.081C164.497 198.101 165.667 199.301 167.457 199.301C168.797 199.301 169.747 198.671 170.307 197.681L170.517 199.051H171.547V188.021H170.307Z" fill="#EEF2F5"/>
<path d="M178.117 197.981C176.817 197.981 176.227 197.221 176.227 195.771V189.181H178.497V188.021H176.227V185.481H174.997V188.021H173.317V189.181H174.997V195.771C174.997 197.891 176.107 199.151 178.117 199.151H178.747V197.981H178.117Z" fill="#EEF2F5"/>
<path d="M181.167 185.981C181.777 185.981 182.177 185.591 182.177 184.981C182.177 184.371 181.777 183.971 181.167 183.971C180.557 183.971 180.157 184.371 180.157 184.981C180.157 185.591 180.557 185.981 181.167 185.981ZM180.557 199.051H181.797V188.021H180.557V199.051Z" fill="#EEF2F5"/>
<path d="M187.967 199.301C190.177 199.301 191.647 197.891 191.647 195.311V191.761C191.647 189.181 190.177 187.771 187.967 187.771C185.767 187.771 184.297 189.181 184.297 191.761V195.311C184.297 197.891 185.767 199.301 187.967 199.301ZM187.967 198.081C186.477 198.081 185.557 197.221 185.557 195.311V191.761C185.557 189.851 186.477 188.991 187.967 188.991C189.457 188.991 190.387 189.851 190.387 191.761V195.311C190.387 197.221 189.457 198.081 187.967 198.081Z" fill="#EEF2F5"/>
<path d="M198.237 187.771C196.897 187.771 195.947 188.401 195.387 189.391L195.177 188.021H194.147V199.051H195.387V192.371C195.387 190.231 196.387 188.951 197.927 188.951C199.377 188.951 199.957 189.951 199.957 192.181V199.051H201.197V191.991C201.197 188.971 200.027 187.771 198.237 187.771Z" fill="#EEF2F5"/>
<defs>
<linearGradient id="paint0_linear_0_1" x1="61.4028" y1="7.41461" x2="99.5977" y2="95.6742" gradientUnits="userSpaceOnUse">
<stop stop-color="#572EFF"/>
<stop offset="0.5" stop-color="#364CA0"/>
<stop offset="1" stop-color="#572EFF"/>
</linearGradient>
<linearGradient id="paint1_linear_0_1" x1="108.065" y1="35.8017" x2="144.7" y2="95.233" gradientUnits="userSpaceOnUse">
<stop stop-color="#572EFF"/>
<stop offset="0.5" stop-color="#364CA0"/>
<stop offset="1" stop-color="#572EFF"/>
</linearGradient>
</defs>
</svg>
